<?xml version="1.0" encoding="iso-8859-1"?>
<!-- Generator: Adobe Illustrator 19.0.0, SVG Export Plug-In . SVG Version: 6.00 Build 0)  -->
<svg version="1.1" id="Layer_1" xmlns="http://www.w3.org/2000/svg" xmlns:xlink="http://www.w3.org/1999/xlink" x="0px" y="0px"
	 viewBox="0 0 512 512" style="enable-background:new 0 0 512 512;" xml:space="preserve">
<g>
	<g>
		<g>
			<path d="M394.363,14.28L394.363,14.28c0-3.653-1.39-7.306-4.183-10.094C387.395,1.395,383.736,0,380.091,0h-6.126
				c-3.648,0-7.306,1.398-10.089,4.186c-2.793,2.788-4.186,6.443-4.186,10.094v20.398h34.673V14.28z"/>
			<path d="M4.186,242.847C1.39,245.629,0,249.283,0,252.941v6.118c0,3.656,1.393,7.306,4.186,10.097
				c2.788,2.783,6.443,4.186,10.094,4.186h20.398v-34.68H14.28C10.627,238.661,6.973,240.051,4.186,242.847z"/>
			<path d="M4.186,182.331C1.39,185.119,0,188.772,0,192.42v6.123c0,3.653,1.393,7.311,4.186,10.102
				c2.788,2.783,6.443,4.178,10.094,4.178h20.398v-34.678H14.28C10.627,178.145,6.973,179.543,4.186,182.331z"/>
			<path d="M4.186,121.815C1.39,124.603,0,128.256,0,131.909v6.118c0,3.661,1.393,7.319,4.186,10.097
				c2.788,2.793,6.443,4.183,10.094,4.183h20.398v-34.673H14.28C10.627,117.635,6.973,119.025,4.186,121.815z"/>
			<path d="M117.629,497.725c0,3.648,1.395,7.306,4.186,10.089c2.788,2.793,6.441,4.186,10.094,4.186h6.124
				c3.648,0,7.306-1.393,10.089-4.186c2.793-2.783,4.183-6.443,4.183-10.089v-20.398h-34.675V497.725z"/>
			<path d="M273.331,14.28h0.003c0-3.653-1.393-7.306-4.175-10.094C266.365,1.395,262.715,0,259.059,0h-6.118
				c-3.658,0-7.311,1.398-10.099,4.186s-4.18,6.443-4.18,10.094v20.398h34.67V14.28z"/>
			<path d="M333.857,14.28c0-3.653-1.4-7.306-4.183-10.094C326.881,1.395,323.22,0,319.572,0h-6.123
				c-3.651,0-7.306,1.398-10.089,4.186c-2.796,2.788-4.186,6.443-4.186,10.094v20.398h34.683V14.28z"/>
			<path d="M152.305,14.28c0-3.651-1.39-7.306-4.183-10.094C145.339,1.398,141.681,0,138.033,0h-6.124
				c-3.653,0-7.306,1.395-10.094,4.186c-2.79,2.788-4.186,6.441-4.186,10.094v20.398h34.675V14.28z"/>
			<path d="M4.186,363.876C1.39,366.659,0,370.317,0,373.975v6.116c0,3.658,1.393,7.306,4.186,10.099
				c2.788,2.783,6.443,4.186,10.094,4.186h20.398V359.69H14.28C10.627,359.69,6.973,361.083,4.186,363.876z"/>
			<path d="M178.145,497.725c0,3.648,1.398,7.306,4.18,10.089c2.788,2.793,6.449,4.186,10.099,4.186h6.118
				c3.653,0,7.306-1.393,10.102-4.186c2.783-2.783,4.178-6.444,4.178-10.089v-20.398h-34.678V497.725z"/>
			<path d="M14.28,299.174c-3.653,0-7.306,1.39-10.094,4.186C1.39,306.143,0,309.801,0,313.459v6.113
				c0,3.661,1.393,7.306,4.186,10.102c2.788,2.783,6.443,4.173,10.094,4.173h20.398v-34.673L14.28,299.174L14.28,299.174z"/>
			<path d="M212.823,14.28L212.823,14.28c0-3.653-1.395-7.306-4.178-10.094C205.857,1.395,202.196,0,198.543,0h-6.118
				c-3.653,0-7.311,1.398-10.099,4.186c-2.783,2.788-4.18,6.443-4.18,10.094v20.398h34.678V14.28z"/>
			<path d="M497.725,359.69h-20.398v0v34.685h20.398c3.648,0,7.306-1.403,10.099-4.186c2.783-2.796,4.175-6.443,4.175-10.099v-6.116
				c0-3.658-1.393-7.316-4.175-10.099C505.032,361.083,501.371,359.69,497.725,359.69z"/>
			<path d="M497.725,238.661h-20.398v0v34.68h20.398c3.648,0,7.306-1.403,10.099-4.186c2.783-2.793,4.175-6.444,4.175-10.097v-6.118
				c0-3.658-1.393-7.311-4.175-10.094C505.032,240.054,501.371,238.661,497.725,238.661z"/>
			<path d="M238.661,497.725c0,3.648,1.39,7.306,4.18,10.089c2.788,2.793,6.446,4.186,10.099,4.186h6.118
				c3.656,0,7.306-1.393,10.097-4.186c2.783-2.783,4.175-6.444,4.175-10.089v-20.398h-34.67V497.725z"/>
			<path d="M497.725,178.145h-20.398v34.678h20.398c3.648,0,7.306-1.395,10.099-4.178c2.783-2.788,4.175-6.449,4.175-10.102v-6.123
				c0-3.648-1.393-7.301-4.175-10.089C505.032,179.543,501.371,178.145,497.725,178.145z"/>
			<path d="M507.825,121.815c-2.793-2.788-6.454-4.18-10.099-4.18h-20.398v34.673h20.398c3.648,0,7.306-1.39,10.099-4.183
				c2.783-2.778,4.175-6.436,4.175-10.097v-6.118C512,128.256,510.607,124.603,507.825,121.815z"/>
			<path d="M497.725,299.174h-20.398v34.673h20.398c3.648,0,7.306-1.39,10.099-4.173c2.783-2.796,4.175-6.443,4.175-10.102v-6.113
				c0-3.661-1.393-7.316-4.175-10.099C505.032,300.564,501.371,299.174,497.725,299.174z"/>
			<path d="M299.174,497.725c0,3.648,1.39,7.306,4.186,10.089c2.783,2.793,6.441,4.186,10.089,4.186h6.124
				c3.648,0,7.306-1.393,10.102-4.186c2.783-2.783,4.183-6.444,4.183-10.089v-20.398h-34.683V497.725z"/>
			<path d="M359.69,497.725c0,3.648,1.393,7.306,4.186,10.089c2.783,2.793,6.444,4.186,10.089,4.186h6.126
				c3.648,0,7.306-1.393,10.089-4.186c2.793-2.783,4.183-6.444,4.183-10.089v-20.398H359.69V497.725z"/>
			<path d="M124.076,86.697l-37.384,37.379v263.846l37.384,37.379h263.846l37.379-37.379V124.076l-37.379-37.379H124.076z
				 M194.624,272.837c0,5.852-1.108,9.828-3.297,11.942c-2.197,2.125-6.382,3.177-12.549,3.177h-38.164
				c-6.205,0-10.396-1.052-12.577-3.177c-2.176-2.115-3.264-6.09-3.264-11.942V239.16c0-5.806,1.091-9.782,3.264-11.914
				c2.181-2.135,6.369-3.203,12.577-3.203h38.162c6.17,0,10.353,1.068,12.549,3.203c2.189,2.132,3.297,6.108,3.297,11.914v6.042
				l-14.879,2.36v-12.093h-40.1v40.458h40.102v-13.724l14.879,3.077V272.837z M294.397,250.706c0,4.311-1.137,7.45-3.418,9.405
				c-2.278,1.958-5.947,2.934-11.034,2.934h-40.031v24.911H225.28v-63.913h54.666c5.084,0,8.755,0.975,11.034,2.931
				c2.281,1.956,3.418,5.11,3.418,9.464V250.706z M387.223,272.837h-0.003c0,5.852-1.083,9.828-3.254,11.942
				c-2.181,2.125-6.374,3.177-12.588,3.177h-40.392c-6.167,0-10.353-1.052-12.552-3.177c-2.191-2.115-3.287-6.09-3.287-11.942
				v-48.794h14.866v51.886h42.399v-51.886h14.81V272.837z"/>
			<path d="M405.166,54.899c-1.577-1.59-4.71-2.88-6.956-2.88H113.789c-2.245,0-5.379,1.293-6.968,2.88l-51.919,51.927
				c-1.59,1.585-2.888,4.716-2.888,6.963v284.421c0,2.245,1.298,5.379,2.888,6.956l51.922,51.937c1.59,1.59,4.721,2.883,6.968,2.883
				h284.421c2.245,0,5.379-1.293,6.956-2.883l51.927-51.937c1.587-1.577,2.893-4.71,2.893-6.956V113.789
				c-0.003-2.245-1.308-5.379-2.895-6.963L405.166,54.899z M393.838,439.585H118.154l-45.742-45.747V118.162l45.742-45.75h275.681
				l45.747,45.75v275.676h0.003L393.838,439.585z"/>
			<path d="M273.352,235.113h-33.436v16.924h33.439c2.586,0,4.339-0.374,5.292-1.119s1.426-2.071,1.426-3.96v-6.83
				c0-1.856-0.474-3.154-1.426-3.899C277.693,235.479,275.94,235.113,273.352,235.113z"/>
		</g>
	</g>
</g>
<g>
</g>
<g>
</g>
<g>
</g>
<g>
</g>
<g>
</g>
<g>
</g>
<g>
</g>
<g>
</g>
<g>
</g>
<g>
</g>
<g>
</g>
<g>
</g>
<g>
</g>
<g>
</g>
<g>
</g>
</svg>
